<svg xmlns="http://www.w3.org/2000/svg" width="159" height="40" viewBox="0 0 159 40" fill="none"><path d="m82.756 4.783.245-1.595a.84.84 0 0 0-.198-.693.85.85 0 0 0-.656-.302h-9.683a.86.86 0 0 0-.854.73l-2.6 16.44a.87.87 0 0 0 .198.699.86.86 0 0 0 .651.307h2.236a.87.87 0 0 0 .854-.73l1.006-6.378h5.54a.86.86 0 0 0 .849-.73l.229-1.39a.87.87 0 0 0-.86-1.007h-5.227l.683-4.617h6.728a.86.86 0 0 0 .86-.734m50.751 5.487-.068-.026a7.1 7.1 0 0 0-2.063-.281c-1.246 0-2.194.505-2.814 1.506a6.2 6.2 0 0 0-.918 3.293c0 .756.131 1.391.391 1.886.271.51.657.777 1.147.777.547 0 1.177-.355 1.881-1.048a11.8 11.8 0 0 0 1.86-2.407zm4.065-1.892-1.777 11.277a.86.86 0 0 1-.855.73h-1.318a.85.85 0 0 1-.621-.266.86.86 0 0 1-.239-.63l.052-1.397-.156.172c-.006.005-.511.568-1.095 1.021-.87.677-1.834 1.042-1.938 1.084a5 5 0 0 1-1.72.297c-1.329 0-2.319-.474-3.043-1.444-.719-.964-1.079-2.245-1.079-3.798 0-.808.083-1.605.24-2.366.161-.76.443-1.532.844-2.298a7.8 7.8 0 0 1 1.501-2.006c.589-.568 1.37-1.032 2.313-1.387.944-.349 2.022-.526 3.195-.526 1.443 0 3.127.183 5.003.553a.864.864 0 0 1 .693.984m9.442-1.407c-.886.209-1.751.75-2.324 1.173-.651.48-1.584 1.496-1.6 1.506l-.156.172.083-1.793a.863.863 0 0 0-.865-.906h-1.329a.86.86 0 0 0-.854.729l-1.819 11.532a.88.88 0 0 0 .198.693.85.85 0 0 0 .657.302h2.053a.86.86 0 0 0 .854-.73l.959-6.138a7.4 7.4 0 0 1 2.116-1.975c.641-.401 1.297-.662 1.954-.76a.86.86 0 0 0 .714-.694l.396-2.11a.85.85 0 0 0-.25-.782.85.85 0 0 0-.787-.219m-41.199 5.774c0-.76-.135-1.396-.396-1.886-.271-.51-.651-.771-1.141-.771-.547 0-1.183.349-1.881 1.047a12 12 0 0 0-1.866 2.408l-.583 3.694.073.021c.599.188 1.292.281 2.063.281 1.251 0 2.199-.505 2.814-1.506a6.16 6.16 0 0 0 .917-3.288m2.778-4.455c.714.964 1.079 2.246 1.079 3.794a10.6 10.6 0 0 1-.417 2.97 9.9 9.9 0 0 1-1.303 2.746c-.584.865-1.428 1.574-2.512 2.095-1.089.526-2.381.797-3.835.797a16 16 0 0 1-2.152-.177l-.089-.01-.156 1.563q-.006.022-.005.052l-.454 2.746a.86.86 0 0 1-.85.72h-2.037a.84.84 0 0 1-.651-.303.85.85 0 0 1-.198-.698L97.67 7.852a.86.86 0 0 1 .855-.724h1.319c.234 0 .463.093.625.26.161.172.25.401.24.63l-.053 1.418.157-.198c.015-.015 1.271-1.542 3.194-2.147a5.2 5.2 0 0 1 1.558-.25c1.308.005 2.304.474 3.028 1.449m47.54-1.167h-1.605l.355-2.293a.862.862 0 0 0-.855-.995h-1.621c-.38 0-.719.25-.828.62l-.787 2.668h-.886a.85.85 0 0 0-.849.724l-.203 1.24a.85.85 0 0 0 .198.698.85.85 0 0 0 .656.303h.537l-.959 6.138a7 7 0 0 0-.104 1.21c0 1.088.286 1.88.881 2.422.583.532 1.474.808 2.657.808.709 0 1.709-.297 1.829-.339.094-.036.271-.093.292-.104q.056-.023.104-.047a.85.85 0 0 0 .443-.656l.151-1.272a.86.86 0 0 0-.265-.72 1.2 1.2 0 0 0-.183-.14c-.047-.02-.088-.042-.135-.057-.032-.01-.11-.026-.417-.021-.073 0-.151.005-.229.005a1.5 1.5 0 0 1-.277-.015c-.12-.021-.417-.084-.568-.22-.073-.062-.297-.26-.297-.99q-.002-.106.026-.338l.881-5.66h1.819a.866.866 0 0 0 .849-.692l.24-1.24a.84.84 0 0 0-.183-.714.84.84 0 0 0-.667-.323m-32.663.349a.87.87 0 0 0-.693-.35h-2.147a.87.87 0 0 0-.828.616c-.183.625-.526 1.344-1.032 2.146-.703 1.131-1.282 1.83-1.772 2.142l-.078.037c-.172.088-.443.218-1.391.385l-.12.02 1.485-9.28a.85.85 0 0 0-.198-.693.85.85 0 0 0-.651-.307h-2.053a.86.86 0 0 0-.855.73l-2.611 16.471a.866.866 0 0 0 .85 1h2.053a.86.86 0 0 0 .854-.729l.673-4.294h1.287l1.771 4.477a.86.86 0 0 0 .803.547h2.23a.866.866 0 0 0 .792-1.209l-2.027-5.227.042-.036c.839-.756 1.699-1.83 2.559-3.179.557-.875.953-1.72 1.188-2.496a.86.86 0 0 0-.131-.771M93.741 5.986c.855 0 1.496-.218 1.902-.661.412-.449.615-1 .615-1.7q.002-.812-.458-1.218C95.497 2.136 95.028 2 94.403 2c-.855 0-1.496.224-1.897.662-.417.448-.62 1.006-.62 1.704 0 .542.157.948.459 1.214.312.276.766.406 1.396.406m.693 1.137h-2.032a.86.86 0 0 0-.855.724L89.73 19.384a.86.86 0 0 0 .198.693.85.85 0 0 0 .651.302h2.032a.87.87 0 0 0 .855-.73l1.819-11.531a.86.86 0 0 0-.198-.693.86.86 0 0 0-.652-.302m-5.878-4.628a.86.86 0 0 1 .198.693l-2 12.767c-.022.22-.027.354-.027.443 0 .427.084.724.245.876.151.14.485.218.542.229.183.026.354.12.485.255.172.183.26.433.24.683l-.115 1.146c-.026.245-.13.448-.282.558-.14.094-.312.182-.531.266-.219.083-.834.26-1.261.26-1.079 0-1.913-.25-2.48-.745-.563-.49-.85-1.204-.85-2.126q0-.376.078-.823c.016-.125 2.173-13.898 2.2-14.05a.86.86 0 0 1 .854-.729h2.053a.84.84 0 0 1 .651.297" fill="#ffffff"/><path d="M147.678 29.524s1.289.64 1.925.913c.618.264.688 1.253.008 1.588-.681.334-.869.388-.869.388s.107-.277.093-.545c-.044-.477-1.45-.865-2.382-1.094 0 0-.715-2.253-1.039-2.88-.325-.631-.984-.894-.984-.894l1.558.021s.536-.026.774.55c.237.58.916 1.953.916 1.953" fill="url(#a)"/><path d="M147.588 34.458s-.632 1.279-.91 1.933c-.264.62-1.269.691-1.602.008s-.367-.804-.367-.804.201.04.521.025c.476-.043.884-1.455 1.113-2.39 0 0 2.242-.719 2.869-1.043.629-.326.889-.988.889-.988l-.021 1.798s.027.306-.548.545c-.577.236-1.944.916-1.944.916" fill="url(#b)"/><path d="M142.628 34.368s-1.282-.637-1.925-.912c-.619-.264-.689-1.255-.008-1.588s.954-.395.954-.395-.177.284-.134.603c.045.479 1.407.813 2.336 1.043 0 0 .742 2.239 1.039 2.88.362.78.962.899.962.899l-1.767-.027s-.306.027-.544-.55c-.235-.58-.913-1.953-.913-1.953" fill="url(#c)"/><path d="M142.734 29.426s.634-1.286.909-1.933c.263-.62 1.249-.69 1.582-.008.333.683.365.806.365.806s-.251.004-.517.019c-.477.045-.865 1.411-1.093 2.345 0 0-2.236.734-2.869 1.043-.871.424-.904.968-.904.968l.036-1.776s-.027-.306.548-.545 1.943-.92 1.943-.92" fill="url(#d)"/><path d="M73.887 35.645H68l1.293-8.16h5.887l-.242 1.58H70.92l-.266 1.709h3.475l-.243 1.512h-3.474l-.277 1.778h4.005zm6.887 0h-2.032l-.83-1.72-1.455 1.72H74.54l2.585-3.036-1.547-3.047h2.044l.808 1.79 1.477-1.79h1.859l-2.586 3.013zm5.3-6.21q.912 0 1.408.67.497.669.497 1.743 0 .704-.197 1.362-.185.645-.588 1.246-.404.6-1.155.97-.75.358-1.754.358-.394 0-.982-.08l-.069.68L82.97 38h-1.79l1.34-8.438h1.408l-.046 1.293q.854-1.42 2.193-1.42m-.577 1.547q-.359 0-.831.462-.462.462-.832 1.085l-.254 1.627q.405.127.924.127.831 0 1.235-.658.416-.67.416-1.477 0-.508-.173-.831-.174-.336-.485-.335m6.222 3.174-.138 1.362q-.635.254-1.305.254-.75 0-1.154-.346-.393-.346-.393-.993 0-.173.035-.38l1.074-6.846h1.8l-1.004 6.395a3 3 0 0 0-.011.196q0 .277.092.37.105.092.404.092.243 0 .6-.104m3.412 1.604q-1.247-.022-1.94-.669-.692-.646-.692-1.812 0-1.709.97-2.77.98-1.074 2.608-1.074 1.293 0 1.997.646.716.636.716 1.824 0 1.767-.97 2.817-.97 1.039-2.69 1.039m.196-1.5q.762 0 1.212-.566.45-.577.45-1.57 0-1.2-1.027-1.2-.75 0-1.212.566t-.462 1.581q0 .612.254.9.266.278.785.29m4.018 1.383.958-6.083h1.42l-.069 1.466q.934-1.593 2.332-1.593h.103l-.346 1.835q-.588 0-1.166.37-.577.357-.946.877l-.485 3.128zm10.711-4.375q-.093 2.124-3.175 2.124-.438 0-.854-.034.058.531.369.762.324.23 1.097.23.912 0 1.882-.334l-.277 1.466q-.97.3-2.078.3-1.548 0-2.205-.658-.647-.658-.647-1.905 0-1.593.947-2.678.959-1.085 2.574-1.085 1.213 0 1.789.496.578.486.578 1.316m-3.937.958q.115.024.37.024 1.766 0 1.766-.82a.56.56 0 0 0-.173-.427q-.174-.174-.52-.173-.554 0-.923.37-.358.368-.52 1.026" fill="#ffffff"/><path d="M115.123 35.645h-1.881l1.293-8.16h3.347q1.535 0 2.159.565.635.566.635 1.593 0 .52-.092.97a3.3 3.3 0 0 1-.347.9q-.242.45-.646.773-.393.312-1.051.52-.657.196-1.523.196h-1.466zm.658-4.132h1.305q1.64 0 1.639-1.559 0-.484-.277-.727-.277-.254-.958-.254h-1.305zm8.126 2.643-.138 1.362a3.5 3.5 0 0 1-1.305.254q-.75 0-1.154-.346-.393-.346-.393-.993 0-.173.035-.38l1.073-6.846h1.801l-1.004 6.395a3 3 0 0 0-.012.196q0 .277.093.37.104.092.404.092.242 0 .6-.104m7.197-4.594-.97 6.083h-1.408l.046-1.293q-.958 1.42-2.459 1.42-.807 0-1.212-.45t-.404-1.2q0-.312.046-.554l.647-4.006h1.789l-.565 3.555a2 2 0 0 0-.035.37q0 .68.485.68.38 0 .854-.426.474-.428.889-1.074l.496-3.105zm.256 5.91.312-1.5q.08.092.727.23a6.3 6.3 0 0 0 1.212.127q1.166 0 1.166-.577 0-.207-.3-.335a3.3 3.3 0 0 0-.716-.207 9 9 0 0 1-.842-.231 1.7 1.7 0 0 1-.716-.496q-.288-.36-.289-.9 0-1.04.751-1.594.75-.555 2.262-.554.496 0 .97.07.473.057.716.126.254.07.323.116l-.3 1.454q-.197-.127-.716-.22a5.7 5.7 0 0 0-1.004-.092q-1.201 0-1.201.555 0 .195.289.311.3.115.715.208.417.08.832.23.427.14.715.497.3.346.3.89 0 1.119-.808 1.65-.797.53-2.193.53a9 9 0 0 1-1.073-.068 12 12 0 0 1-.82-.127 3 3 0 0 1-.312-.093" fill="#FFC200"/><defs><linearGradient id="a" x1="144.463" y1="26.966" x2="149.609" y2="32.094" gradientUnits="userSpaceOnUse"><stop offset=".041" stop-color="#FFF300"/><stop offset=".273" stop-color="#FFF300"/><stop offset=".502" stop-color="#FFE500"/><stop offset=".813" stop-color="#F2A930"/></linearGradient><linearGradient id="b" x1="145.01" y1="36.4" x2="150.165" y2="31.263" gradientUnits="userSpaceOnUse"><stop offset=".187" stop-color="#F2A930"/><stop offset=".498" stop-color="#FFE500"/><stop offset=".727" stop-color="#FFF300"/><stop offset=".959" stop-color="#FFF300"/></linearGradient><linearGradient id="c" x1="140.703" y1="31.791" x2="145.84" y2="36.91" gradientUnits="userSpaceOnUse"><stop offset=".187" stop-color="#F2A930"/><stop offset=".498" stop-color="#FFE500"/><stop offset=".727" stop-color="#FFF300"/><stop offset=".959" stop-color="#FFF300"/></linearGradient><linearGradient id="d" x1="140.179" y1="32.638" x2="145.322" y2="27.514" gradientUnits="userSpaceOnUse"><stop offset=".041" stop-color="#FFF300"/><stop offset=".273" stop-color="#FFF300"/><stop offset=".502" stop-color="#FFE500"/><stop offset=".813" stop-color="#F2A930"/></linearGradient></defs></svg>