<svg id="svg8" height="512" viewBox="0 0 16.933333 16.933334" width="512" xmlns="http://www.w3.org/2000/svg" xmlns:svg="http://www.w3.org/2000/svg"><g id="layer6" stroke-linejoin="round"><path id="path2888" d="m8.4667969.26367188c-3.5038709-.00000001-6.3496094 2.84769162-6.3496094 6.35156252.0000001 3.5038706 2.8457385 6.3496096 6.3496094 6.3496096 3.5038711 0 6.3496091-2.845739 6.3496091-6.3496096 0-3.5038709-2.845738-6.35156252-6.3496091-6.35156252zm0 .52929687c3.2178881 0 5.8203121 2.60437755 5.8203121 5.82226565 0 3.217888-2.602424 5.8203126-5.8203121 5.8203126s-5.8203124-2.6024246-5.8203125-5.8203126c0-3.2178881 2.6024244-5.82226565 5.8203125-5.82226565z" stroke-linecap="round"/><path id="path2890" d="m8.4667969 1.8515625c-2.6271195-.0000001-4.7617188 2.1365524-4.7617188 4.7636719.0000003 2.6271192 2.1345995 4.7617186 4.7617188 4.7617186 2.6271191 0 4.7617181-2.1345996 4.7617191-4.7617186 0-2.6271193-2.1346-4.7636717-4.7617191-4.7636719zm0 .5292969c2.3411361.0000002 4.2324221 1.8932385 4.2324221 4.234375-.000001 2.3411363-1.891286 4.2324216-4.2324221 4.2324216-2.3411365 0-4.2343748-1.8912851-4.234375-4.2324216 0-2.3411367 1.8932383-4.2343751 4.234375-4.234375z" stroke-linecap="round"/><path id="path2892" d="m3.4648438 10.251953-2.48437505 4.302735a.26460996.26460996 0 0 0 .28124995.390625l2.5312501-.5.8320312 2.443359a.26460996.26460996 0 0 0 .4804687.04687l2.4335938-4.214839-.4589844-.265625-2.1425781 3.708984-.71875-2.109374a.26460996.26460996 0 0 0 -.3007812-.173829l-2.1875001.431641 2.1914063-3.794922z"/><path id="path2894" d="m13.46875 10.251953-.457031.265625 2.191406 3.794922-2.1875-.431641a.26460996.26460996 0 0 0 -.300781.173829l-.71875 2.109374-2.1425784-3.708984-.4589843.265625 2.4335937 4.214844a.26460996.26460996 0 0 0 .480469-.04687l.832031-2.443359 2.53125.5a.26460996.26460996 0 0 0 .28125-.390625z"/><path id="path2896" d="m8.4667969 3.6679688c-.1877258-.0000003-.2197554.08216-.2695313.1328125-.2891551.3342245-.6780822 1.022342-.8222655 1.2499994-.4864794.1216891-1.0031505.222233-1.4414067.3945279-.063555.031687-.150974.038259-.2089843.2167969-.05801.1785377.00822.233883.041016.296875.2131467.357016.8189006 1.0278392.9355466 1.1679686-.029572.5327569-.1029999 1.0128045-.070311 1.4921879.010497.070236-.011248.1552823.140625.265625.1518732.1103422.2268329.064455.296875.052734.4165926-.1008463 1.1645796-.4342782 1.398437-.5273443.4693171.1784279.9359577.4082062 1.398437.5273443.070042.011721.1450013.057609.2968743-.052734.151874-.1103421.130128-.195389.140625-.265625.035435-.4128217-.05819-1.3109182-.07033-1.4921879.270397-.316227.559861-.6551434.814452-.9804686.145459-.1578805.204642-.3256471.162111-.484375-.042551-.1588038-.145412-.1851058-.208967-.216793-.467198-.1851387-.962378-.273616-1.4414066-.3945281-.2754955-.4205248-.5173862-.8817148-.8222653-1.2500031-.0497758-.0506522-.0818055-.1328128-.2695312-.1328125zm0 .6425781c.2323963.3392262.4272736.6841158.6484375 1.0214843.03569.050297.048153.084975.1328125.1464844.08466.06151.1188703.061677.1777344.080078.3956313.1056222.7816887.1915258 1.1718747.3007808-.24793.3280124-.518044.6182961-.769531.9335937-.036806.049486-.065319.070398-.097656.1699219-.032337.099524-.022174.1336433-.021484.1953125.01964.4098455.0576889.8035374.076177 1.2089844-.4393458-.152033-.9085618-.3985125-1.3183651-.4863275-.1046459-.0000002-.1329684.0213029-.1914063.0410156-.383676.1449096-.7471906.3027266-1.1269531.4453125.0129476-.4117237.0574755-.8052129.076177-1.2089844.0006845-.0616692.0108478-.0957886-.0214895-.1953125-.0323373-.0995237-.06085-.1204358-.0976563-.1699219-.2509967-.3161598-.5483199-.6519369-.7695312-.9335937.3942129-.1165909.782511-.195953 1.171875-.3007808.058864-.018401.093074-.018569.1777344-.080078.08466-.061509.097122-.096188.1328125-.1464844.139527-.2056414.2756592-.4360341.3945312-.6308599.0910805-.1481375.1797442-.2861255.2539063-.390625z" stroke-linecap="round"/></g></svg>